<?xml version="1.0" encoding="utf-8"?>
<!-- Generator: Adobe Illustrator 25.0.1, SVG Export Plug-In . SVG Version: 6.00 Build 0)  -->
<svg version="1.0" id="katman_1" xmlns="http://www.w3.org/2000/svg" xmlns:xlink="http://www.w3.org/1999/xlink" x="0px" y="0px"
	 viewBox="0 0 800 600" style="enable-background:new 0 0 800 600;" xml:space="preserve">
<style type="text/css">
	.st0{enable-background:new    ;}
	.st1{clip-path:url(#SVGID_1_);}
	.st2{clip-path:url(#SVGID_2_);fill:#000000;}
	.st3{clip-path:url(#SVGID_2_);fill:#000000;}
	.st4{clip-path:url(#SVGID_2_);fill:#000000;}
	.st5{clip-path:url(#SVGID_2_);fill:#000000;}
	.st6{clip-path:url(#SVGID_2_);fill:#000000;}
</style>
<g>
	<g>
		<g class="st0">
			<g>
				<defs>
					<rect id="SVGID_5_" x="105.5" y="254.2" width="588.5" height="91.7"/>
				</defs>
				<clipPath id="SVGID_1_">
					<use xlink:href="#SVGID_5_"  style="overflow:visible;"/>
				</clipPath>
				<g class="st1">
					<defs>
						<rect id="SVGID_7_" x="105.5" y="254.2" width="588.5" height="91.7"/>
					</defs>
					<clipPath id="SVGID_2_">
						<use xlink:href="#SVGID_7_"  style="overflow:visible;"/>
					</clipPath>
					<path class="st2" d="M175.3,278.3l3.5,0.1l9.4-9.4l0.5-4c-7.5-6.6-17.3-10.7-28-10.7c-19.5,0-35.9,13.2-40.7,31.2
						c1-0.7,3.2-0.2,3.2-0.2l18.8-3.1c0,0,1-1.6,1.5-1.5c4.3-4.7,10.5-7.6,17.3-7.6C166.1,273.1,171.2,275.1,175.3,278.3"/>
					<path class="st3" d="M201.3,285.5c-2.2-8-6.7-15.1-12.7-20.5l-13.3,13.3c5.3,4.3,8.7,10.9,8.7,18.2v2.3
						c6.5,0,11.7,5.3,11.7,11.7c0,6.5-5.3,11.7-11.7,11.7h-23.4l-2.4,2.4v14.1l2.4,2.3H184c16.8,0,30.5-13.7,30.5-30.5
						C214.5,300.2,209.3,291,201.3,285.5"/>
					<path class="st4" d="M137.1,341.1h23.4v-18.8h-23.4c-1.7,0-3.4-0.4-4.8-1.1l-3.4,1l-9.4,9.4l-0.8,3.2
						C123.8,338.8,130.2,341.1,137.1,341.1"/>
					<path class="st5" d="M137.1,280.1c-16.8,0-30.5,13.7-30.5,30.5c0,9.9,4.7,18.7,12.1,24.3l13.6-13.6c-4.1-1.8-6.9-5.9-6.9-10.7
						c0-6.5,5.3-11.7,11.7-11.7c4.7,0,8.8,2.8,10.7,6.9l13.6-13.6C155.8,284.9,147,280.1,137.1,280.1"/>
					<path class="st6" d="M536.8,328.2c-7.8,0-14.4-2.6-19.7-7.9c-5.2-5.3-7.8-11.9-7.8-19.7c0-7.9,2.6-14.4,7.8-19.7
						c5.2-5.3,11.8-8,19.7-8c8,0,14.5,2.9,19.5,8.7l-4.9,4.7c-3.8-4.6-8.7-6.9-14.6-6.9c-5.9,0-10.8,2-14.7,5.9
						c-3.9,3.9-5.8,9-5.8,15.2c0,6.3,1.9,11.3,5.8,15.2c3.9,3.9,8.9,5.9,14.7,5.9c6.2,0,11.5-2.6,16.1-7.8l5,4.8
						c-2.5,3-5.6,5.3-9.2,7C544.9,327.4,541,328.2,536.8,328.2"/>
					<rect x="563.4" y="274.1" class="st6" width="6.8" height="53"/>
					<path class="st6" d="M576,308.9c0-5.6,1.8-10.2,5.3-13.8c3.6-3.7,8-5.5,13.4-5.5c5.4,0,9.8,1.8,13.3,5.5
						c3.6,3.6,5.3,8.3,5.3,13.8c0,5.6-1.8,10.2-5.3,13.8c-3.5,3.7-7.9,5.5-13.3,5.5c-5.4,0-9.8-1.8-13.4-5.5
						C577.8,319.1,576,314.5,576,308.9 M582.8,308.9c0,3.9,1.1,7.1,3.4,9.5c2.3,2.4,5.1,3.6,8.4,3.6c3.4,0,6.2-1.2,8.4-3.6
						c2.3-2.4,3.4-5.6,3.4-9.5c0-3.8-1.1-7-3.4-9.4c-2.3-2.5-5.1-3.7-8.4-3.7c-3.3,0-6.1,1.2-8.4,3.7
						C584,302,582.8,305.1,582.8,308.9z"/>
					<path class="st6" d="M650.9,327.1h-6.5v-5h-0.3c-1,1.8-2.6,3.3-4.8,4.4c-2.1,1.2-4.4,1.8-6.7,1.8c-4.4,0-7.9-1.3-10.2-3.8
						c-2.4-2.5-3.6-6.2-3.6-10.8v-22.8h6.8v22.3c0.1,5.9,3.1,8.9,9,8.9c2.7,0,5-1.1,6.8-3.3c1.8-2.2,2.7-4.8,2.7-7.9v-20h6.8V327.1"
						/>
					<path class="st6" d="M674,328.2c-4.7,0-8.8-1.9-12.2-5.6c-3.4-3.8-5-8.4-5-13.7c0-5.3,1.7-9.9,5-13.7c3.4-3.8,7.5-5.6,12.2-5.6
						c2.7,0,5.1,0.6,7.3,1.7c2.2,1.1,3.9,2.6,5.1,4.5h0.3l-0.3-5v-16.7h6.8v53h-6.5v-5h-0.3c-1.2,1.9-2.9,3.4-5.1,4.5
						C679.1,327.7,676.6,328.2,674,328.2 M675.1,322c3.4,0,6.1-1.2,8.2-3.6c2.2-2.4,3.3-5.6,3.3-9.5c0-3.8-1.1-6.9-3.3-9.4
						c-2.2-2.5-4.9-3.7-8.2-3.7c-3.3,0-6,1.2-8.2,3.7c-2.2,2.5-3.3,5.6-3.3,9.4c0,3.8,1.1,7,3.3,9.4
						C669.1,320.8,671.8,322,675.1,322z"/>
					<path class="st6" d="M282.6,328.2c-16.5,0-30.4-13.4-30.4-29.9c0-16.5,13.9-29.9,30.4-29.9c9.1,0,15.6,3.6,20.5,8.3l-5.8,5.8
						c-3.5-3.3-8.2-5.8-14.7-5.8c-12,0-21.5,9.7-21.5,21.8c0,12,9.4,21.8,21.5,21.8c7.8,0,12.3-3.1,15.1-6c2.3-2.3,3.9-5.7,4.4-10.3
						h-19.8v-8.2h27.7c0.3,1.5,0.4,3.2,0.4,5.1c0,6.1-1.7,13.7-7.1,19.1C298.2,325.3,291.5,328.2,282.6,328.2"/>
					<path class="st6" d="M352,308.9c0,11.1-8.7,19.3-19.3,19.3c-10.6,0-19.3-8.2-19.3-19.3c0-11.2,8.7-19.3,19.3-19.3
						C343.4,289.7,352,297.8,352,308.9 M343.6,308.9c0-6.9-5-11.7-10.9-11.7c-5.8,0-10.9,4.7-10.9,11.7c0,6.9,5,11.7,10.9,11.7
						C338.5,320.6,343.6,315.8,343.6,308.9z"/>
					<path class="st6" d="M394.1,308.9c0,11.1-8.7,19.3-19.3,19.3c-10.6,0-19.3-8.2-19.3-19.3c0-11.2,8.7-19.3,19.3-19.3
						C385.4,289.7,394.1,297.8,394.1,308.9 M385.6,308.9c0-6.9-5-11.7-10.9-11.7c-5.8,0-10.9,4.7-10.9,11.7c0,6.9,5,11.7,10.9,11.7
						C380.6,320.6,385.6,315.8,385.6,308.9z"/>
					<path class="st6" d="M434.3,290.8v34.6c0,14.2-8.4,20.1-18.3,20.1c-9.3,0-15-6.3-17.1-11.4l7.4-3.1c1.3,3.1,4.5,6.9,9.7,6.9
						c6.3,0,10.3-3.9,10.3-11.3v-2.8H426c-1.9,2.3-5.5,4.4-10.1,4.4c-9.6,0-18.5-8.4-18.5-19.2c0-10.9,8.8-19.4,18.5-19.4
						c4.6,0,8.2,2,10.1,4.3h0.3v-3.1H434.3 M426.8,309c0-6.8-4.5-11.8-10.3-11.8c-5.8,0-10.7,5-10.7,11.8c0,6.7,4.9,11.6,10.7,11.6
						C422.3,320.6,426.8,315.7,426.8,309z"/>
					<rect x="440.4" y="270.4" class="st6" width="8.5" height="56.7"/>
					<path class="st6" d="M481.7,315.3l6.6,4.4c-2.1,3.1-7.2,8.5-16.1,8.5c-10.9,0-19.1-8.5-19.1-19.3c0-11.5,8.2-19.3,18.2-19.3
						c10,0,14.9,8,16.5,12.3l0.9,2.2l-25.8,10.7c2,3.9,5,5.8,9.3,5.8C476.5,320.6,479.5,318.5,481.7,315.3 M461.4,308.4l17.2-7.2
						c-0.9-2.4-3.8-4.1-7.2-4.1C467.2,297.1,461.2,300.9,461.4,308.4z"/>
				</g>
			</g>
		</g>
	</g>
</g>
</svg>
