<?xml version="1.0" encoding="utf-8"?>
<!-- Generator: Adobe Illustrator 25.0.0, SVG Export Plug-In . SVG Version: 6.00 Build 0)  -->
<svg version="1.1" id="katman_1" xmlns="http://www.w3.org/2000/svg" xmlns:xlink="http://www.w3.org/1999/xlink" x="0px" y="0px"
	 viewBox="0 0 560 400" style="enable-background:new 0 0 560 400;" xml:space="preserve">
<style type="text/css">
	.st0{fill:#000000;}
</style>
<path class="st0" d="M57,250.1c0,0,9.5-16.5,21.1-36.6L99.1,177l24.6-20.6c13.5-11.3,24.6-20.6,24.6-20.6c0,0-0.1,0.4-0.4,1
	c-0.3,0.6-12.3,26.3-26.7,57.2l-26.2,56.2l-19,0C65.6,250.1,57,250.1,57,250.1z M423.3,250.3c0,0-0.1-12-0.1-26.7V197h8.6v5.5
	c0,3,0,5.5,0.1,5.5s0.3-0.5,0.5-1.1c1-2.8,2.6-5.4,4.8-7.4c1.9-1.9,4.2-3,6.8-3.4c0.7-0.1,1.4-0.1,2.8-0.1c1.9,0,2.8,0.2,4,0.6
	l0.4,0.1v8.9l-1-0.5c-1.8-0.9-3.6-1.3-5.7-1.1c-1.4,0.1-2.3,0.2-3.4,0.7c-2.3,0.9-4.1,2.4-5.4,4.4c-1.9,3-3.2,6.8-3.6,10.4
	c-0.1,0.6-0.1,5.8-0.1,16l0,15h-4.2C425.2,250.3,423.3,250.3,423.3,250.3L423.3,250.3z M307.7,249v-1.4l15.8-21.7l15.8-21.7l-14.3,0
	l-14.3,0l0-3.6l0-3.6h41.3v2.4l-15.8,21.8c-8.7,12-15.8,21.8-15.8,21.8c0,0,7,0,15.6,0h15.6v7.3h-21.9h-21.9V249z M284.3,221.4
	c0,0-2.6-7.2-5.9-15.9c-6-16.4-6.4-17.3-6.9-20c-0.2-1.2-0.3-1.3-0.5-0.1c-0.1,0.8-0.5,2.6-0.8,3.6c-0.2,0.5-2.9,8-6,16.6
	c-3.2,8.6-5.8,15.7-5.8,15.8c0,0,5.8,0.1,12.9,0.1S284.3,221.5,284.3,221.4z M238.4,250.2c0-0.1,6.4-16.9,14.2-37.4l14.2-37.3h9.1
	l0.4,1c1.2,3,28.4,73.7,28.4,73.7c0,0-2.2,0-4.9,0l-4.8,0l-3.9-10.5l-3.9-10.5h-15.8h-15.8l-0.1,0.4c-0.1,0.2-1.8,4.9-3.7,10.5
	l-3.6,10.1l-4.9,0C239.4,250.3,238.4,250.3,238.4,250.2L238.4,250.2z M494.2,217.8c0-4.3-1.8-9.1-4.4-11.5c-1.8-1.8-4-2.8-6.7-3.2
	c-1.2-0.2-3.9-0.1-5.2,0.1c-2.8,0.6-5.1,1.8-7.1,3.7c-2.1,2.1-3.7,4.6-4.7,7.5c-0.4,1-0.8,2.7-0.9,3.7l-0.1,0.4h28.9V217.8z
	 M477.8,251.6c-3.4-0.3-7.1-1.4-10-3.3c-6.2-3.9-9.9-10.2-11-19c-0.4-3-0.4-7.1-0.1-9.7c0.7-5.7,3-11.4,6.2-15.4
	c0.8-1,2.7-2.9,3.7-3.7c2.8-2.2,6-3.8,9.5-4.5c2-0.4,5.6-0.6,7.7-0.4c5.4,0.5,10.3,3,13.7,7c3.4,4.1,5.3,9.7,5.5,16.7
	c0,1.1,0,3,0,4.3l0,2.3l-18.9,0l-18.9,0v0.8c0,2.6,0.6,5.5,1.7,8c0.9,2.1,2.5,4.5,3.8,5.6c2.7,2.3,6,3.7,9.6,4
	c1.3,0.1,4.7,0,6.2-0.2c4.3-0.7,8.4-2.4,11.8-4.9c0.4-0.3,0.8-0.6,0.8-0.6c0.1-0.1,0.1,0.7,0.1,3.9l0,4l-0.9,0.6
	c-3.8,2.3-8.1,3.8-12.6,4.4C484.4,251.6,479.4,251.7,477.8,251.6z M379,251.6c-9.7-0.6-15.4-6.2-16.9-16.5
	c-0.4-2.8-0.4-2.8-0.4-20.7l0-17.3h8.6l0,16.8c0,15.1,0.1,16.9,0.2,18c0.6,4.3,1.8,7.2,3.7,9.3c1.6,1.7,3.5,2.6,6,3.2
	c1.2,0.2,4.7,0.2,5.8,0c2.6-0.6,4.7-1.7,6.6-3.6c2.1-2.1,3.7-5.1,4.4-8.5l0.3-1.1l0-16.9l0-16.9h8.8v53.2h-4.4h-4.4v-4.2
	c0-2.9,0-4.2-0.1-4.2c-0.1,0-0.3,0.4-0.5,0.8c-1.5,2.7-4,5.2-6.7,6.7C386.8,251.2,383.5,251.9,379,251.6L379,251.6z M133.7,257.4
	c21.3-3.8,38.9-6.9,39.1-6.9l0.4-0.1l-20.1-23.9c-11.1-13.2-20.1-24-20.1-24c0-0.1,20.8-57.3,20.9-57.5c0-0.1,14.2,24.3,34.3,59.2
	c18.8,32.6,34.3,59.5,34.5,59.7l0.3,0.5l-63.9,0l-63.9,0L133.7,257.4z"/>
</svg>
