<?xml version="1.0" encoding="utf-8"?>
<!-- Generator: Adobe Illustrator 25.0.1, SVG Export Plug-In . SVG Version: 6.00 Build 0)  -->
<svg version="1.0" id="katman_1" xmlns="http://www.w3.org/2000/svg" xmlns:xlink="http://www.w3.org/1999/xlink" x="0px" y="0px"
	 viewBox="0 0 560 400" style="enable-background:new 0 0 560 400;" xml:space="preserve">
<style type="text/css">
	.st0{fill:#000000;}
</style>
<path class="st0" d="M34,226.7h37.7c6.6,0,10.2-0.6,12.2-2c2.6-1.6,4-4.3,4-7.6c0-3.9-2-7.2-5.3-8.8c-1.7-1-5-1.4-8.9-1.4H58.5
	c-9.9,0-16.4-1.7-20.7-5.5c-5-4.3-7.8-11.1-7.8-18.3c0-10.5,5.9-19.7,14.4-22.7c3.7-1.4,8-1.7,17.7-1.7h41v14.8H66.1
	c-7.8,0.1-8.5,0.1-11.1,0.7c-3.4,0.9-5.6,4-5.6,8.5c0,3.7,1.7,6.8,4.7,8c2.4,1.1,4.5,1.3,10.3,1.3h13.2c12.2,0,18.7,1.9,23.6,6.8
	c3.7,3.7,6.2,11.1,6.2,18.3c0,8.8-4,17-10.5,21c-4,2.6-9.3,3.3-21.6,3.3H34V226.7z M154.7,158.1c-11.6,0-21.8,2.9-28.3,8
	c-8.2,6.5-12.5,18.5-12.5,34.3c0,11.1,2.3,20.1,7.2,26.9c6.5,9.3,19,14.5,34.8,14.5c11.2,0,20.6-2.7,26.7-7.8
	c8.2-6.6,12.8-18.5,12.8-32.9v-2.3l-0.1-2.3v-2.3l-0.3-2.2l-0.3-2.2l-0.4-2.2l-0.4-2l-0.4-2l-0.3-1l-0.3-1l-0.3-0.9l-0.3-0.9
	l-0.3-0.9l-0.3-0.9l-0.3-0.9l-0.4-0.9l-0.4-0.7l-0.4-0.7l-0.4-0.7l-0.4-0.7l-0.4-0.7l-0.4-0.7l-0.4-0.7l-0.4-0.6
	C181.3,162.7,169.6,158.1,154.7,158.1L154.7,158.1z M154.9,172.2c14.8,0,21.3,8.6,21.3,28c0,19.1-6.8,27.9-21.3,27.9
	c-14.8,0-21.6-8.8-21.6-28.2v-0.9v-0.9v-0.7v-0.7V196v-0.7v-0.7v-0.7v-0.7v-0.7l0.1-0.7l0.1-0.7l0.1-0.7l0.1-0.7l0.1-0.6l0.1-0.6
	l0.1-0.6l0.1-0.6l0.1-0.6l0.1-0.6l0.1-0.6l0.1-0.6l0.1-0.6l0.1-0.4l0.1-0.4l0.1-0.4l0.1-0.4l0.1-0.4l0.1-0.4l0.3-0.4l0.3-0.4
	l0.3-0.4C140.5,175.2,146.8,172.2,154.9,172.2L154.9,172.2z M205,158.8v82.6h17.5v-28.9h28.3c9.5,0,13.9-1.3,18.7-5.3
	c5.7-4.9,9.2-12.9,9.2-21.6c0-7.3-2.6-14.1-7.5-19.4c-5.5-6-10.5-7.6-25-7.6H205V158.8z M222.6,173.5h24.3c2.9,0,5,0.3,6.5,0.7
	c3.9,1.3,6,5.3,6,10.8c0,4.6-1.4,8.6-3.6,10.3l-0.1,0.1l-0.1,0.1l-0.1,0.1l-0.1,0.1l-0.1,0.1l-0.1,0.1l-0.1,0.1l-0.3,0.1l-0.3,0.1
	l-0.3,0.1l-0.3,0.1l-0.3,0.1l-0.3,0.1h-0.3l-0.3,0.1l-0.3,0.1h-0.3h-0.3h-0.3H251h-0.3h-0.3h-0.3h-0.3h-0.3h-0.4h-0.4h-0.4h-0.4
	h-0.4H247h-0.4h-24L222.6,173.5z M353.9,241.5h-17.5v-34.1h-31.9v34.1H287v-82.6h17.5v33.8h31.9v-33.8h17.5V241.5z M405.4,158.1
	c-11.6,0-21.8,2.9-28.3,8c-8.2,6.5-12.5,18.5-12.5,34.3c0,11.1,2.3,20.1,7.2,26.9c6.5,9.3,19,14.5,34.8,14.5
	c11.2,0,20.6-2.7,26.7-7.8c8.2-6.6,12.8-18.5,12.8-32.9v-2.3l-0.1-2.3l-0.1-2.3l-0.3-2.2l-0.1-2.2l-0.3-2.2l-0.4-2l-0.4-2l-0.3-1
	l-0.3-1l-0.3-0.9l-0.3-0.9l-0.3-0.9l-0.3-0.9l-0.3-0.9l-0.3-0.9l-0.4-0.7l-0.4-0.7l-0.4-0.7l-0.4-0.7l-0.4-0.7l-0.4-0.7l-0.4-0.7
	l-0.4-0.6C431.8,162.7,420.1,158.1,405.4,158.1L405.4,158.1z M405.4,172.2c14.8,0,21.3,8.6,21.3,28c0,19.1-6.8,27.9-21.3,27.9
	c-14.8,0-21.6-8.8-21.6-28.2v-0.9v-0.9v-0.7v-0.7V196v-0.7v-0.7v-0.7v-0.7v-0.7l0.1-0.7l0.1-0.7l0.1-0.7l0.1-0.7l0.1-0.6l0.1-0.6
	l0.1-0.6l0.1-0.6l0.1-0.6l0.1-0.6l0.1-0.6l0.1-0.6l0.1-0.6l0.1-0.4l0.1-0.4l0.1-0.4l0.1-0.4l0.1-0.4l0.1-0.4l0.3-0.4l0.3-0.4
	l0.3-0.4C391,175.2,397.3,172.2,405.4,172.2L405.4,172.2z M456.6,226.7h37.7c6.6,0,10.2-0.6,12.2-2c2.6-1.6,4-4.3,4-7.6
	c0-3.9-2-7.2-5.3-8.8c-1.7-1-4.9-1.4-8.9-1.4H481c-9.9,0-16.4-1.7-20.7-5.5c-4.9-4.3-7.8-11.1-7.8-18.3c0-10.5,5.9-19.7,14.4-22.7
	c3.7-1.4,8-1.7,17.7-1.7h41v14.8h-36.9c-7.8,0.1-8.5,0.1-11.1,0.7c-3.4,0.9-5.6,4-5.6,8.5c0,3.7,1.7,6.8,4.7,8
	c2.4,1.1,4.5,1.3,10.3,1.3h13.2c12.2,0,18.7,1.9,23.6,6.8c3.7,3.7,6.2,11.1,6.2,18.3c0,8.8-4,17-10.5,21c-4,2.6-9.3,3.3-21.6,3.3
	h-41.5L456.6,226.7z"/>
</svg>
