<svg version="1.2" xmlns="http://www.w3.org/2000/svg" viewBox="0 0 722 722" width="722" height="722">
	<title>Black logo - no background-svg</title>
	<style>
		.s0 { fill: #000000 } 
	</style>
	<g id="Layer">
		<g id="SvgjsG1212">
			<path id="Layer" fill-rule="evenodd" class="s0" d="m243.6 243.6c82.5-82.4 120.6-178 85.3-213.3-35.4-35.4-131 2.7-213.4 85.2-82.5 82.4-120.6 178-85.2 213.4 35.3 35.3 130.9-2.8 213.3-85.3z"/>
			<path id="Layer" fill-rule="evenodd" class="s0" d="m606.3 606.3c82.4-82.5 120.6-178 85.2-213.4-35.4-35.4-130.9 2.8-213.3 85.3-82.5 82.4-120.7 178-85.3 213.3 35.4 35.4 130.9-2.7 213.4-85.2z"/>
			<path id="Layer" fill-rule="evenodd" class="s0" d="m243.6 478.2c-82.4-82.5-178-120.7-213.3-85.3-35.4 35.4 2.7 131 85.2 213.4 82.4 82.5 178 120.6 213.4 85.2 35.4-35.4-2.8-130.9-85.3-213.3z"/>
			<path id="Layer" fill-rule="evenodd" class="s0" d="m606.3 115.5c-82.5-82.5-178-120.6-213.4-85.2-35.4 35.3 2.8 130.9 85.3 213.3 82.4 82.5 178 120.6 213.3 85.3 35.4-35.4-2.8-131-85.2-213.4z"/>
			<path id="Layer" class="s0" d="m360.9 90.4c0 149.4-121.1 270.5-270.5 270.5 149.4 0 270.5 121.1 270.5 270.5 0-149.4 121.1-270.5 270.5-270.5-149.4 0-270.5-121.1-270.5-270.5z"/>
		</g>
		<g id="SvgjsG1213">
			<path id="Layer" fill-rule="evenodd" class="s0" d="m985.8 332.5l72.5 205.3h-65.3l-124.9-342.4h64.6zm104.1 127l-30.9-81.8 74.7-182.4h63.2zm183.8-263.5h255.6v54.6h-255.6zm0 287.2h254.9v54.5h-254.9zm0-145h230.5v53.9h-230.5zm596.6-44.6l-155.8 191h194.6v53.2h-280v-44.6l165.1-199.6c0 0 76.1 0 76.1 0zm-234.7-97.6h273.5v53.1h-273.5zm639.7 247.7q0 23-8.6 40.2-10.8 18.7-25.9 29.5-15 10.8-39.5 17.9-23.7 6.5-51.7 6.5h-137.8v-53.1h138.6q30.1 0 48.1-12.2 17.2-12.2 17.2-35.2 0-21.6-17.2-34.5-18-12.2-52.4-12.2h-134.3v-50.3h121.3q28.7 0 46.7-11.4 17.2-10.8 17.2-35.2 0-21.6-15-33.1-17.3-11.4-44.6-11.4h-125.6v-53.2h132.8q51.7 0 81.9 23.7 30.1 23.7 30.1 63.9 0 15.1-4.3 28-4.3 12.2-10.8 20.8-5 7.9-15 16.6-10.1 6.4-18.7 11.4 12.2 4.4 28 12.3 14.4 9.3 20.8 16.5 9.4 10 14.4 23.7 4.3 12.9 4.3 30.8zm101.2-247.7h255.7v54.6h-255.7zm0 287.2h254.9v54.6h-254.9zm0-145.1h230.5v53.9h-230.5zm569.4 199.6l-84-119.2h-75.4v119.2h-59.6v-172.3h147.9q33.1 0 51.7-15.8 18.7-15.1 18.7-41.7 0-28.7-18.7-43.1-18.6-14.3-52.4-14.3h-147.2v-54.6h152.2q28 0 53.2 7.9 24.4 7.9 40.2 21.5 16.5 14.4 25.1 33.8 8.6 20.1 8.6 45.2 0 21.6-6.4 38.8-5.1 15.8-16.5 29.4-10.1 12.2-25.9 22.3-14.4 7.9-33 13.6l92.6 129.3c0 0-71.1 0-71.1 0z"/>
		</g>
	</g>
</svg>