
        <svg xmlns="http://www.w3.org/2000/svg" xmlns:xlink="http://www.w3.org/1999/xlink" version="1.1" width="3162.095783872288" height="849.7860015244928" viewBox="0 0 3162.095783872288 849.7860015244928">
			
			<g transform="scale(8.104789193614408) translate(10, 10)">
				<defs id="SvgjsDefs1211"/><g id="SvgjsG1212" featureKey="symbolFeature-0" transform="matrix(0.9427744492376139,0,0,0.9427744492376139,-4.714317750128267,-4.714190527509624)" fill="#000"><path xmlns="http://www.w3.org/2000/svg" fill-rule="evenodd" clip-rule="evenodd" d="M34.651,34.651C45.443,23.861,50.439,11.36,45.81,6.731  c-4.631-4.635-17.138,0.361-27.927,11.153C7.093,28.675,2.097,41.179,6.73,45.808C11.359,50.438,23.863,45.442,34.651,34.651z"/><path xmlns="http://www.w3.org/2000/svg" fill-rule="evenodd" clip-rule="evenodd" d="M82.113,82.116C92.904,71.326,97.9,58.823,93.27,54.194  c-4.631-4.632-17.129,0.363-27.922,11.156c-10.791,10.791-15.786,23.292-11.158,27.92C58.822,97.903,71.326,92.911,82.113,82.116z"/><path xmlns="http://www.w3.org/2000/svg" fill-rule="evenodd" clip-rule="evenodd" d="M34.651,65.351C23.863,54.558,11.359,49.562,6.73,54.194  c-4.633,4.629,0.363,17.134,11.153,27.922C28.674,92.911,41.179,97.903,45.81,93.271C50.443,88.639,45.443,76.142,34.651,65.351z"/><path xmlns="http://www.w3.org/2000/svg" fill-rule="evenodd" clip-rule="evenodd" d="M82.113,17.885C71.326,7.093,58.822,2.096,54.189,6.731  c-4.627,4.629,0.367,17.13,11.158,27.919C76.141,45.442,88.643,50.438,93.27,45.808C97.902,41.177,92.908,28.675,82.113,17.885z"/><path xmlns="http://www.w3.org/2000/svg" d="M50.001,14.6c0,19.552-15.853,35.401-35.401,35.401c19.552,0,35.401,15.849,35.401,35.398  c0-19.549,15.848-35.398,35.397-35.398C65.85,50.001,50.001,34.152,50.001,14.6z"/></g><g id="SvgjsG1213" featureKey="nameFeature-0" transform="matrix(1.1339600717044653,0,0,1.1339600717044653,102.78526289281001,20.494100946913612)" fill="#000"><path d="M8.9844 1.328000000000003 l-7.0313 0 l13.594 37.266 l7.1094 0 l-7.8906 -22.344 z M37.734 1.328000000000003 l-6.875 0 l-8.125 19.844 l3.3594 8.9063 z M46.0938 1.4059999999999988 l27.813 0 l0 5.9375 l-27.813 0 l0 -5.9375 z M46.0938 32.6562 l27.734 0 l0 5.9375 l-27.734 0 l0 -5.9375 z M46.0938 16.875 l25.078 0 l0 5.8594 l-25.078 0 l0 -5.8594 z M102.73400000000001 12.030999999999999 l-17.969 21.719 l0 4.8438 l30.469 0 l0 -5.7813 l-21.172 0 l16.953 -20.781 l-8.2813 0 z M85.4688 1.4059999999999988 l29.766 0 l0 5.7813 l-29.766 0 l0 -5.7813 z M154.609 25 c-0.36461 -0.98961 -0.88531 -1.8488 -1.5624 -2.578 c-0.46875 -0.52086 -1.224 -1.1198 -2.2656 -1.797 c-1.1459 -0.57289 -2.1615 -1.0156 -3.0469 -1.3281 c0.625 -0.36461 1.3021 -0.78125 2.0313 -1.25 c0.72914 -0.625 1.276 -1.224 1.6406 -1.7969 c0.46875 -0.625 0.85938 -1.3802 1.1719 -2.2656 c0.3125 -0.9375 0.46875 -1.9531 0.46875 -3.0469 c0 -2.9166 -1.0938 -5.2344 -3.2813 -6.9531 s-5.1563 -2.5781 -8.9063 -2.5781 l-14.453 0 l0 5.7813 l13.672 0 c1.9791 0 3.5938 0.41664 4.8438 1.25 c1.0938 0.83336 1.6406 2.0313 1.6406 3.5938 c0 1.7709 -0.625 3.0469 -1.875 3.8281 c-1.3021 0.83336 -2.9948 1.25 -5.0782 1.25 l-13.203 0 l0 5.4688 l14.609 0 c2.5 0 4.401 0.44273 5.7031 1.3281 c1.25 0.9375 1.875 2.1875 1.875 3.75 c0 1.6666 -0.625 2.9427 -1.875 3.828 c-1.3021 0.88539 -3.0469 1.3281 -5.2344 1.3281 l-15.078 0 l0 5.7813 l15 0 c2.0313 0 3.9063 -0.23438 5.625 -0.70313 c1.7709 -0.52086 3.2031 -1.1719 4.2969 -1.9531 s2.0313 -1.849 2.8125 -3.2031 c0.625 -1.25 0.9375 -2.7084 0.9375 -4.375 c0 -1.3021 -0.15625 -2.4219 -0.46875 -3.3594 z M166.0938 1.4059999999999988 l27.813 0 l0 5.9375 l-27.813 0 l0 -5.9375 z M166.0938 32.6562 l27.734 0 l0 5.9375 l-27.734 0 l0 -5.9375 z M166.0938 16.875 l25.078 0 l0 5.8594 l-25.078 0 l0 -5.8594 z M235.781 38.5937 l-10.078 -14.063 c1.3541 -0.41664 2.552 -0.91141 3.5937 -1.4843 c1.1459 -0.72914 2.0834 -1.5364 2.8125 -2.4218 c0.83336 -0.98961 1.4323 -2.0573 1.797 -3.2032 c0.46875 -1.25 0.70313 -2.6563 0.70313 -4.2188 c0 -1.8229 -0.3125 -3.4635 -0.9375 -4.9219 c-0.625 -1.4063 -1.5365 -2.6302 -2.7344 -3.6719 c-1.1459 -0.98961 -2.6042 -1.7709 -4.3751 -2.3438 c-1.8229 -0.57289 -3.75 -0.85938 -5.7813 -0.85938 l-16.563 0 l0 5.9375 l16.016 0 c2.4479 0 4.3489 0.52086 5.703 1.5625 s2.0313 2.6041 2.0313 4.6875 c0 1.9271 -0.67711 3.4375 -2.0313 4.5313 c-1.3541 1.1459 -3.2291 1.7188 -5.625 1.7188 l-16.094 0 l0 18.75 l6.4844 0 l0 -12.969 l8.2031 0 l9.1406 12.969 l7.7344 0 l0 0 z"/></g>
			</g>
		</svg>
	